<?xml version="1.0" encoding="UTF-8"?>
<svg id="Livello_2" data-name="Livello 2" xmlns="http://www.w3.org/2000/svg" viewBox="0 0 199.33 133.34">
  <defs>
    <style>
      .cls-1 {
        fill: #1a3247;
        stroke-width: 0px;
      }
    </style>
  </defs>
  <g id="Livello_1-2" data-name="Livello 1">
    <g>
      <g>
        <path class="cls-1" d="m99.1,8.42c-4.65,0-8.42,3.77-8.42,8.42h0c4.65,0,8.42,3.77,8.42,8.42,0-4.65,3.77-8.42,8.42-8.42,0-4.65-3.77-8.42-8.42-8.42Z"/>
        <path class="cls-1" d="m77.57,33.25s-10.37-7.42-5.18-17.74l.31-.31c1.49-.41,2.88-1.24,4-2.47,1.45-1.6,2.16-3.61,2.17-5.61-2.13-2-5.24-2.83-8.23-1.92-1.45.44-2.69,1.25-3.66,2.28l-.39-.64c-.39-2.04-1.52-3.94-3.33-5.25-3.7-2.68-8.84-1.92-11.61,1.68l-.15-.03s.06.04.1.09c-.03.04-.07.09-.1.13h0s16.19,12.98,22.16,43.47c0,0,13.73-5.54,25.49-5.54v-9.82l-21.57,1.66Z"/>
        <path class="cls-1" d="m120.62,33.25s10.37-7.42,5.18-17.74l-.31-.31c-1.49-.41-2.88-1.24-4-2.47-1.45-1.6-2.16-3.61-2.17-5.61,2.13-2,5.24-2.83,8.23-1.92,1.45.44,2.69,1.25,3.66,2.28l.39-.64c.39-2.04,1.52-3.94,3.33-5.25,3.7-2.68,8.84-1.92,11.61,1.68l.15-.03s-.06.04-.1.09c.03.04.07.09.1.13h0s-16.19,12.98-22.16,43.47c0,0-13.73-5.54-25.49-5.54v-9.82s21.57,1.66,21.57,1.66Z"/>
      </g>
      <g>
        <path class="cls-1" d="m31.11,73.23c-2.99-2.69-3.74-6.2-3.74-9.14,0-2.07.71-5.68,3.46-8.43,1.85-1.85,4.66-3.3,9.42-3.3,1.23,0,2.96.09,4.48.37,1.17.22,2.13.31,3.27.46.22.03.28.15.28.34,0,.25-.09.62-.16,1.73-.06,1.02-.06,2.72-.09,3.18-.03.46-.09.65-.28.65-.22,0-.25-.22-.25-.65,0-1.2-.49-2.47-1.3-3.15-1.08-.93-3.46-1.76-6.17-1.76-4.11,0-6.02,1.2-7.1,2.25-2.25,2.16-2.78,4.91-2.78,8.06,0,5.9,4.54,11.3,11.14,11.3,2.32,0,4.14-.28,5.37-1.54.65-.68,1.05-2.04,1.14-2.59.06-.34.12-.46.31-.46.16,0,.22.22.22.46,0,.22-.37,2.9-.68,3.95-.18.59-.25.65-.8.9-1.24.49-3.58.71-5.56.71-4.63,0-7.75-1.14-10.19-3.33Z"/>
        <path class="cls-1" d="m57.31,68.6c-.15,0-.25.09-.31.25l-1.36,3.86c-.31.86-.52,1.7-.52,2.19,0,.56.34.8,1.02.8h.22c.28,0,.37.09.37.22,0,.15-.25.22-.46.22-.68,0-2.1-.09-2.44-.09-.31,0-1.67.09-2.96.09-.34,0-.49-.06-.49-.22,0-.12.12-.22.37-.22.16,0,.43,0,.62-.03,1.33-.12,1.85-1.14,2.38-2.44l6.17-16.27c.34-.9.43-1.05.65-1.05.15,0,.28.12.62.99.43,1.02,4.63,11.79,6.27,15.65,1.02,2.44,1.91,2.84,2.35,2.99.4.15.83.15,1.05.15s.37.06.37.22-.12.22-.46.22c-.31,0-2.62,0-4.69-.06-.59-.03-.77-.06-.77-.22,0-.09.09-.19.22-.22.12-.06.31-.22.12-.68l-2.44-6.2c-.06-.09-.12-.15-.25-.15h-5.62Zm5.25-1.08c.12,0,.12-.09.09-.19l-2.44-6.82c-.15-.43-.19-.43-.34,0l-2.32,6.82c-.06.12,0,.19.06.19h4.94Z"/>
        <path class="cls-1" d="m73.7,75.79c-.4-.19-.4-.31-.4-1.05,0-1.42.09-2.47.12-2.9.03-.28.09-.43.25-.43s.22.09.22.31c0,.19,0,.56.09.93.4,2.01,2.22,2.78,4.01,2.78,2.56,0,3.8-1.76,3.8-3.3,0-1.76-.8-2.84-3.06-4.66l-1.23-.96c-2.96-2.38-3.58-4.01-3.58-5.83,0-2.84,2.25-4.75,5.71-4.75,1.08,0,1.82.09,2.5.25.59.12.83.15,1.05.15s.28.06.28.19-.12,1.2-.12,2.99c0,.46-.06.65-.22.65s-.19-.12-.22-.34c-.03-.28-.09-.93-.37-1.45-.15-.28-.86-1.45-3.46-1.45-1.85,0-3.24,1.11-3.24,2.96,0,1.45.74,2.35,3.3,4.29l.71.56c3.21,2.47,4.04,4.11,4.04,6.3,0,1.11-.46,3.09-2.35,4.38-1.2.77-2.69,1.08-4.17,1.08-1.3,0-2.5-.15-3.67-.68Z"/>
        <path class="cls-1" d="m92.96,68.6c-.15,0-.25.09-.31.25l-1.36,3.86c-.31.86-.52,1.7-.52,2.19,0,.56.34.8,1.02.8h.22c.28,0,.37.09.37.22,0,.15-.25.22-.46.22-.68,0-2.1-.09-2.44-.09-.31,0-1.67.09-2.96.09-.34,0-.49-.06-.49-.22,0-.12.12-.22.37-.22.16,0,.43,0,.62-.03,1.33-.12,1.85-1.14,2.38-2.44l6.17-16.27c.34-.9.43-1.05.65-1.05.15,0,.28.12.62.99.43,1.02,4.63,11.79,6.27,15.65,1.02,2.44,1.91,2.84,2.35,2.99.4.15.83.15,1.05.15s.37.06.37.22-.12.22-.46.22c-.31,0-2.62,0-4.69-.06-.59-.03-.77-.06-.77-.22,0-.09.09-.19.22-.22.12-.06.31-.22.12-.68l-2.44-6.2c-.06-.09-.12-.15-.25-.15h-5.62Zm5.25-1.08c.12,0,.12-.09.09-.19l-2.44-6.82c-.15-.43-.19-.43-.34,0l-2.32,6.82c-.06.12,0,.19.06.19h4.94Z"/>
        <path class="cls-1" d="m120.64,63.88c0-4.07,0-4.85-.06-5.65-.06-.83-.31-1.27-1.2-1.45-.18-.03-.65-.06-.89-.06-.15,0-.31-.09-.31-.19,0-.19.18-.25.46-.25,1.27,0,3.21.09,3.3.09.22,0,1.82-.09,3.55-.09,2.72,0,7.78-.28,11.05,3.02,1.36,1.36,2.62,3.52,2.62,6.64,0,3.27-1.42,5.83-2.93,7.38-1.2,1.2-3.55,3.02-8.24,3.02-1.17,0-2.69-.06-3.86-.15-1.17-.06-2.13-.15-2.22-.15-.06,0-.46,0-1.05.03-.59,0-1.33.06-1.79.06-.28,0-.43-.06-.43-.22,0-.09.09-.22.34-.22s.46-.03.71-.09c.52-.09.71-.74.8-1.42.19-1.14.15-3.24.15-5.74v-4.57Zm2.53,2.62c0,2.78.03,5.19.03,5.65.03.96.09,1.79.31,2.07.34.52,1.33,1.17,4.54,1.17,2.53,0,4.82-.8,6.42-2.41,1.36-1.36,2.01-3.67,2.01-6.14,0-3.49-1.61-5.62-2.65-6.64-2.62-2.62-5.65-2.93-8.71-2.93-.43,0-1.39.09-1.57.22-.25.12-.34.25-.34.52-.03.9-.03,3.52-.03,5.37v3.12Z"/>
        <path class="cls-1" d="m145.33,63.88c0-4.04,0-4.78-.06-5.62-.06-.86-.28-1.3-1.17-1.48-.19-.03-.49-.06-.74-.06-.22,0-.4-.09-.4-.19,0-.19.15-.25.46-.25.62,0,1.45.06,3.18.09.15,0,5.65,0,6.27-.03.62-.03.96-.06,1.2-.15.19-.06.22-.09.34-.09.06,0,.12.06.12.22,0,.19-.19.62-.25,1.39-.03.52-.06,1.02-.09,1.6,0,.28-.06.46-.22.46s-.22-.12-.22-.34c-.03-.46-.12-.77-.22-.99-.19-.62-.46-.83-2.01-.93-.4-.03-3.46-.06-3.52-.06-.09,0-.15.06-.15.25v7.01c0,.19.03.31.19.31.37,0,3.52-.03,4.17-.09.71-.03,1.17-.12,1.42-.46.12-.19.22-.25.34-.25.06,0,.12.03.12.19s-.12.74-.22,1.64c-.09.86-.09,1.48-.12,1.88-.03.25-.09.34-.22.34-.15,0-.19-.19-.19-.4,0-.19-.03-.49-.09-.74-.12-.4-.31-.83-1.48-.93-.71-.06-3.21-.12-3.7-.12-.19,0-.22.09-.22.22v2.25c0,.96-.03,3.67,0,4.2.06,1.14.22,1.73.86,2.01.46.22,1.2.28,2.25.28.59,0,1.57.03,2.35-.19.93-.28,1.14-.9,1.39-2.04.06-.31.15-.43.28-.43.19,0,.19.28.19.46,0,.22-.25,2.16-.34,2.69-.12.62-.34.68-1.36.68-2.04,0-2.9-.06-3.98-.06-1.08-.03-2.5-.09-3.64-.09-.71,0-1.3.09-2.04.09-.28,0-.43-.06-.43-.22,0-.12.12-.22.28-.22.18,0,.4-.03.62-.09.56-.12.93-.52.99-2.44.03-1.05.06-2.32.06-4.66v-4.63Z"/>
        <path class="cls-1" d="m163.94,68.57c0,3.55.12,5.34.65,5.83.49.43,1.11.62,3.24.62,1.36,0,2.59,0,3.27-.86.31-.46.52-1.08.59-1.54.03-.25.09-.37.25-.37.12,0,.19.09.19.4s-.19,2.07-.37,2.78c-.19.62-.15.77-1.64.77-2.1,0-4.41-.15-7.5-.15-1.02,0-1.64.09-2.72.09-.31,0-.49-.06-.49-.25,0-.09.09-.19.34-.19s.49,0,.74-.06c.53-.09.71-.71.8-1.45.19-1.17.12-3.3.12-5.68v-4.63c0-4.07,0-4.75-.06-5.59-.06-.86-.18-1.42-1.23-1.54-.19-.03-.53-.03-.77-.03-.22,0-.34-.09-.34-.22,0-.15.15-.22.46-.22,1.3,0,3.15.09,3.21.09.43,0,2.32-.09,3.18-.09.31,0,.4.09.4.22s-.15.22-.34.22c-.22,0-.52.03-.83.06-.86.12-1.05.62-1.11,1.51-.06.83-.03,1.51-.03,5.59v4.69Z"/>
        <path class="cls-1" d="m2.8,92.66c0-5.02,0-5.92-.06-6.95-.06-1.09-.32-1.61-1.38-1.83-.19-.03-.51-.03-.8-.06s-.55-.06-.55-.23c0-.19.16-.26.51-.26,1.25,0,2.48.1,3.64.1.64,0,7.18,0,7.92-.03.74-.03,1.32-.03,1.58-.19.1-.06.23-.13.29-.13.13,0,.19.13.19.29s-.13.61-.19,1c-.13.93-.13,1.45-.19,2.35,0,.39-.16.64-.29.64-.16,0-.19-.13-.23-.42-.03-.45-.16-1.22-.61-1.61-.39-.32-.96-.58-1.9-.61-1.64-.03-3.28-.06-4.92-.1-.19,0-.29.1-.29.35v8.88c0,.19.03.29.22.29,1.32,0,3.15,0,4.47-.03,1.71-.03,2.12-.06,2.57-.61.16-.19.23-.32.35-.32s.16.1.16.26c0,.19-.16.74-.26,1.8-.1.97-.1,1.74-.13,2.22-.03.35-.06.55-.23.55-.19,0-.22-.23-.26-.55-.06-.71-.16-1.83-1.83-2.06-.8-.1-4.31-.1-4.86-.1-.16,0-.22.06-.22.29v2.74c0,2.74,0,5.02.1,6.5.1,1.45.45,2.16,1.32,2.25.42.06.96.1,1.32.13.29.03.39.1.39.23,0,.16-.16.23-.51.23-1.8,0-3.8-.1-3.96-.1h-.29c-.64.03-2.09.1-2.86.1-.35,0-.51-.06-.51-.26,0-.1.06-.16.35-.19.32-.03.61-.06.84-.13.68-.19.9-.68,1-2.09.1-1.38.13-3.64.13-6.66v-5.66Z"/>
        <path class="cls-1" d="m17.7,97.26c0-4.28,3.32-10.68,11.26-10.68,6.37,0,11.23,3.8,11.23,10.27s-4.54,11.17-11.39,11.17c-7.88,0-11.1-5.86-11.1-10.75Zm19.47.39c0-6.47-3.99-10.07-8.4-10.07s-8.08,2.77-8.08,8.85,3.51,10.49,8.91,10.49c2.16,0,7.56-1.09,7.56-9.27Z"/>
        <path class="cls-1" d="m46.69,94.88c0-4.25,0-5.02-.06-5.89-.06-.87-.29-1.35-1.29-1.54-.19-.03-.52-.06-.77-.06-.23,0-.35-.06-.35-.19s.1-.23.39-.23c1.38,0,3.35.1,3.41.1.29,0,2.48-.1,3.38-.1,1.8,0,3.76.16,5.28,1.22.61.45,1.93,1.74,1.93,3.93,0,1.77-.87,4.02-3.41,6.08,2.35,2.9,4.28,5.28,5.92,6.98,1.54,1.58,2.51,1.83,3.41,1.96.22.03.9.06,1,.06.26,0,.35.1.35.23,0,.16-.13.23-.58.23h-2.25c-1.51,0-2.22-.1-2.93-.39-1.35-.58-2.32-2.03-3.99-4.18-1.25-1.54-2.54-3.28-3.09-3.96-.13-.13-.19-.19-.39-.19l-3.31-.03c-.13,0-.16.03-.16.16v.45c0,2.57,0,4.92.16,6.08.1.77.19,1.42,1.25,1.54.32.03.68.06.93.06.29,0,.42.1.42.19,0,.16-.13.26-.45.26-1.67,0-3.48-.1-3.6-.1-.51,0-1.93.1-2.8.1-.32,0-.45-.06-.45-.26,0-.1.19-.19.39-.19.23,0,.45,0,.71-.06.55-.1.74-.45.84-1.22.16-1.16.13-3.8.13-6.21v-4.83Zm2.48,2.28c0,.16.03.32.16.39.42.23,1.71.42,2.86.42.68,0,1.48-.03,2.16-.48.96-.61,1.61-2.03,1.61-4.09,0-3.51-1.87-5.44-4.73-5.44-.8,0-1.48.06-1.87.16-.1.03-.19.13-.19.29v8.75Z"/>
        <path class="cls-1" d="m89.35,104.11c.1.77.29,2.57,1.54,2.86.55.13,1.19.19,1.64.23.13,0,.42.03.42.19s-.13.26-.48.26c-.58,0-4.05-.13-5.08-.19-.71-.06-.97-.13-.97-.29,0-.1.13-.23.29-.29.16-.06.26-.45.19-.9l-1.42-13.77-6.82,13.84c-.61,1.26-.71,1.54-1,1.54-.19,0-.35-.29-.97-1.38-.51-.93-3.09-6.08-3.28-6.37-.19-.39-3.35-6.63-3.6-7.31l-1.19,12.39c-.03.45-.03.74-.03,1.22,0,.35.16.84.8.97.35.06.58.06.9.1.26.03.32.13.32.19,0,.23-.19.26-.55.26-1.03,0-2.41-.1-2.67-.1-.32,0-1.67.1-2.48.1-.29,0-.48-.03-.48-.26,0-.06.13-.19.42-.19.23,0,.26,0,.61-.03.77-.06,1.06-.84,1.22-2.12l2.16-17.67c.06-.55.19-.8.35-.8s.26.1.48.52l8.62,16.7,8.21-16.67c.16-.35.29-.55.48-.55s.29.29.32.8l2.03,16.73Z"/>
        <path class="cls-1" d="m99.55,99.8c-.16,0-.26.1-.32.26l-1.42,4.02c-.32.9-.55,1.77-.55,2.28,0,.58.35.84,1.06.84h.23c.29,0,.39.1.39.23,0,.16-.26.23-.48.23-.71,0-2.19-.1-2.54-.1-.32,0-1.74.1-3.09.1-.35,0-.51-.06-.51-.23,0-.13.13-.23.39-.23.16,0,.45,0,.64-.03,1.38-.13,1.93-1.19,2.48-2.54l6.44-16.96c.35-.93.45-1.09.68-1.09.16,0,.29.13.64,1.03.45,1.06,4.83,12.29,6.53,16.32,1.06,2.54,2,2.96,2.45,3.12.42.16.87.16,1.09.16s.39.06.39.23-.13.23-.48.23c-.32,0-2.74,0-4.89-.06-.61-.03-.8-.06-.8-.23,0-.1.1-.19.22-.23.13-.06.32-.23.13-.71l-2.54-6.47c-.06-.1-.13-.16-.26-.16h-5.86Zm5.47-1.13c.13,0,.13-.1.1-.19l-2.54-7.11c-.16-.45-.19-.45-.35,0l-2.41,7.11c-.06.13,0,.19.06.19h5.15Z"/>
        <path class="cls-1" d="m134.27,105.27c0,1.29-.03,1.32-.39,1.51-1.77.9-4.34,1.22-5.92,1.22-2.09,0-6.15-.16-9.43-2.9-1.74-1.45-3.48-4.15-3.48-7.82,0-4.38,2.22-7.5,4.86-9.08,2.48-1.45,5.21-1.64,7.18-1.64,2.06,0,3.44.26,4.6.45.51.1,1.77.26,2.45.29.26,0,.26.13.26.26,0,.39-.22,1.35-.22,4.18,0,.45-.03.58-.26.58-.16,0-.19-.19-.23-.39,0-.29-.13-1.29-.61-2-.74-1.06-3.06-2.25-6.66-2.25-1.74,0-3.77.06-5.92,1.71-1.64,1.25-2.7,3.7-2.7,6.89,0,3.83,2.09,6.66,2.93,7.47,2.12,2.06,4.51,2.99,7.31,2.99.9,0,2.32-.16,3.06-.55.32-.19.55-.52.55-.97v-4.63c0-2.12-.16-2.54-1.29-2.7-.19-.03-.51-.06-.77-.06s-.39-.13-.39-.23c0-.16.13-.23.48-.23,1.29,0,3.15.06,3.28.06s2.03-.06,2.9-.06c.32,0,.45.06.45.23,0,.1-.1.23-.39.23-.23,0-.29,0-.55.03-.77.1-.97.68-1.03,1.61-.06.93-.06,1.74-.06,2.9v2.9Z"/>
        <path class="cls-1" d="m159.27,105.27c0,1.29-.03,1.32-.39,1.51-1.77.9-4.34,1.22-5.92,1.22-2.09,0-6.15-.16-9.43-2.9-1.74-1.45-3.48-4.15-3.48-7.82,0-4.38,2.22-7.5,4.86-9.08,2.48-1.45,5.21-1.64,7.18-1.64,2.06,0,3.44.26,4.6.45.51.1,1.77.26,2.45.29.26,0,.26.13.26.26,0,.39-.22,1.35-.22,4.18,0,.45-.03.58-.26.58-.16,0-.19-.19-.23-.39,0-.29-.13-1.29-.61-2-.74-1.06-3.06-2.25-6.66-2.25-1.74,0-3.77.06-5.92,1.71-1.64,1.25-2.7,3.7-2.7,6.89,0,3.83,2.09,6.66,2.93,7.47,2.12,2.06,4.51,2.99,7.31,2.99.9,0,2.32-.16,3.06-.55.32-.19.55-.52.55-.97v-4.63c0-2.12-.16-2.54-1.29-2.7-.19-.03-.51-.06-.77-.06s-.39-.13-.39-.23c0-.16.13-.23.48-.23,1.29,0,3.15.06,3.28.06s2.03-.06,2.9-.06c.32,0,.45.06.45.23,0,.1-.1.23-.39.23-.23,0-.29,0-.55.03-.77.1-.97.68-1.03,1.61-.06.93-.06,1.74-.06,2.9v2.9Z"/>
        <path class="cls-1" d="m167.76,94.88c0-4.25,0-5.02-.06-5.89-.06-.87-.26-1.35-.93-1.48-.32-.06-.55-.06-.74-.1-.22-.03-.35-.1-.35-.23,0-.16.13-.23.48-.23,1,0,2.83.1,2.93.1.13,0,2-.1,2.9-.1.32,0,.48.06.48.23,0,.13-.1.19-.35.23-.19.03-.35.03-.58.06-.93.13-1.03.61-1.09,1.54-.06.87-.03,1.61-.03,5.86v4.83c0,2.48-.03,4.73.13,5.89.13.93.26,1.29,1.09,1.48.42.1,1.09.13,1.22.13.29.03.35.1.35.23s-.13.23-.45.23c-1.64,0-3.51-.1-3.67-.1-.1,0-2,.1-2.9.1-.29,0-.51-.06-.51-.23,0-.13.13-.23.42-.23.16,0,.51-.03.77-.1.55-.13.64-.77.74-1.54.16-1.16.16-3.44.16-5.86v-4.83Z"/>
        <path class="cls-1" d="m176.83,97.26c0-4.28,3.32-10.68,11.26-10.68,6.37,0,11.23,3.8,11.23,10.27s-4.54,11.17-11.39,11.17c-7.88,0-11.1-5.86-11.1-10.75Zm19.47.39c0-6.47-3.99-10.07-8.4-10.07s-8.08,2.77-8.08,8.85,3.51,10.49,8.91,10.49c2.16,0,7.56-1.09,7.56-9.27Z"/>
      </g>
      <g>
        <path class="cls-1" d="m79.91,128.14c0-1.74,0-2.06-.02-2.41-.02-.38-.11-.56-.48-.64-.09-.02-.28-.03-.38-.03-.04,0-.09-.02-.09-.07,0-.07.06-.09.18-.09.5,0,1.17.03,1.26.03.25,0,.89-.03,1.41-.03,1.4,0,1.9.47,2.08.64.25.23.56.74.56,1.46,0,1.45-1.16,2.52-2.75,2.52-.06,0-.18,0-.23-.01-.06,0-.12-.02-.12-.08,0-.09.07-.1.3-.1,1.08,0,1.93-.74,1.93-1.91,0-.28-.03-1.03-.62-1.63s-1.27-.56-1.53-.56c-.19,0-.38.02-.48.07-.07.02-.09.1-.09.21v4.59c0,1.07,0,1.95.06,2.42.03.32.1.57.44.61.16.02.4.04.5.04.07,0,.09.03.09.07,0,.06-.06.09-.18.09-.61,0-1.32-.03-1.37-.03-.03,0-.74.03-1.07.03-.12,0-.18-.02-.18-.09,0-.03.02-.07.09-.07.1,0,.23-.02.33-.04.22-.04.28-.29.32-.61.06-.47.06-1.35.06-2.42v-1.97Z"/>
        <path class="cls-1" d="m86.9,130.04c-.06,0-.09.03-.11.09l-.67,1.98c-.1.28-.16.55-.16.75,0,.22.21.32.4.32h.1c.11,0,.15.02.15.07,0,.07-.1.09-.2.09-.27,0-.71-.03-.84-.03s-.74.03-1.26.03c-.15,0-.21-.02-.21-.09,0-.04.06-.07.16-.07.08,0,.18-.01.27-.02.51-.07.74-.49.94-1.05l2.54-6.94c.13-.37.18-.44.25-.44s.11.06.25.4c.17.42,1.92,5.04,2.6,6.74.4.99.73,1.17.96,1.24.17.06.35.07.44.07.07,0,.12.01.12.07,0,.07-.1.09-.22.09-.17,0-.98,0-1.75-.02-.21-.01-.33-.01-.33-.08,0-.04.03-.07.08-.08.07-.02.13-.12.07-.3l-1.04-2.75s-.04-.07-.1-.07h-2.4Zm2.26-.4c.06,0,.06-.03.04-.08l-1.06-3.02c-.06-.17-.11-.17-.17,0l-.98,3.02c-.02.06,0,.08.03.08h2.13Z"/>
        <path class="cls-1" d="m94.2,128.14c0-1.74,0-2.06-.02-2.41-.02-.38-.11-.56-.48-.64-.09-.02-.28-.03-.38-.03-.04,0-.09-.02-.09-.07,0-.07.06-.09.18-.09.5,0,1.21.03,1.26.03.12,0,.97-.03,1.32-.03.7,0,1.45.07,2.04.49.28.2.77.75.77,1.52,0,.83-.35,1.65-1.35,2.58.92,1.17,1.68,2.17,2.32,2.86.6.64,1.08.76,1.36.8.21.03.37.03.44.03.06,0,.1.03.1.07,0,.07-.07.09-.27.09h-.79c-.63,0-.9-.06-1.2-.21-.48-.26-.87-.8-1.51-1.64-.47-.61-.99-1.36-1.22-1.65-.04-.04-.08-.07-.14-.07l-1.37-.02c-.06,0-.08.03-.08.09v.27c0,1.07,0,1.95.06,2.42.03.32.1.57.44.61.16.02.4.04.5.04.07,0,.09.03.09.07,0,.06-.06.09-.18.09-.61,0-1.32-.03-1.37-.03-.01,0-.71.03-1.05.03-.12,0-.18-.02-.18-.09,0-.03.02-.07.09-.07.1,0,.23-.02.33-.04.22-.04.28-.29.32-.61.06-.47.06-1.35.06-2.42v-1.97Zm.89.97c0,.06.02.1.08.13.17.1.68.18,1.17.18.27,0,.58-.03.84-.21.39-.27.68-.87.68-1.72,0-1.4-.74-2.23-1.93-2.23-.33,0-.64.03-.75.07-.06.02-.09.07-.09.13v3.65Z"/>
        <path class="cls-1" d="m110.92,131.9c.04.4.12,1.03.6,1.18.32.1.58.1.69.1.06,0,.12.01.12.07,0,.07-.03.09-.17.09-.25,0-1.52-.03-1.93-.07-.26-.02-.31-.06-.31-.11,0-.04.02-.06.08-.08.08-.03.07-.2.04-.4l-.54-5.83-2.77,5.88c-.23.49-.27.59-.37.59-.08,0-.13-.11-.35-.51-.29-.55-1.25-2.48-1.31-2.59-.1-.2-1.39-2.96-1.51-3.26l-.46,5.26c-.01.18-.02.33-.02.52,0,.28.13.37.3.4.19.04.33.04.4.04s.11.02.11.06c0,.08-.06.1-.17.1-.41,0-.98-.03-1.07-.03-.1,0-.64.03-.94.03-.11,0-.19-.01-.19-.09,0-.04.06-.07.11-.07.09,0,.17,0,.33-.03.37-.07.39-.47.45-.93l.8-7.26c.01-.12.06-.22.12-.22s.11.04.17.17l3.42,7.03,3.28-7.01c.04-.1.09-.18.17-.18s.11.09.13.3l.75,6.86Z"/>
        <path class="cls-1" d="m114.96,130.04c-.06,0-.09.03-.11.09l-.67,1.98c-.1.28-.16.55-.16.75,0,.22.21.32.4.32h.1c.11,0,.15.02.15.07,0,.07-.1.09-.2.09-.27,0-.71-.03-.84-.03s-.74.03-1.26.03c-.14,0-.21-.02-.21-.09,0-.04.06-.07.16-.07.08,0,.18-.01.27-.02.51-.07.74-.49.94-1.05l2.54-6.94c.13-.37.18-.44.25-.44s.11.06.25.4c.17.42,1.92,5.04,2.6,6.74.4.99.73,1.17.96,1.24.17.06.35.07.44.07.07,0,.12.01.12.07,0,.07-.1.09-.22.09-.17,0-.98,0-1.75-.02-.21-.01-.33-.01-.33-.08,0-.04.03-.07.08-.08.07-.02.13-.12.07-.3l-1.04-2.75s-.04-.07-.1-.07h-2.4Zm2.26-.4c.06,0,.06-.03.04-.08l-1.06-3.02c-.06-.17-.11-.17-.17,0l-.98,3.02c-.02.06,0,.08.03.08h2.13Z"/>
      </g>
    </g>
  </g>
</svg>